<svg width="26" height="26" viewBox="0 0 26 26" fill="none" xmlns="http://www.w3.org/2000/svg">
<path d="M6.25 5.75C5.97386 5.75 5.75 5.97386 5.75 6.25C5.75 6.52614 5.97386 6.75 6.25 6.75L6.25 5.75ZM8.125 6.25L8.61007 6.12873C8.55443 5.90615 8.35443 5.75 8.125 5.75L8.125 6.25ZM18.25 16.5C18.5261 16.5 18.75 16.2761 18.75 16C18.75 15.7239 18.5261 15.5 18.25 15.5V16.5ZM19.75 7.75L20.2351 7.87127C20.2724 7.7219 20.2389 7.56365 20.1441 7.44229C20.0493 7.32094 19.904 7.25 19.75 7.25V7.75ZM18.25 13.75V14.25C18.4794 14.25 18.6794 14.0939 18.7351 13.8713L18.25 13.75ZM6.25 6.75L8.125 6.75L8.125 5.75L6.25 5.75L6.25 6.75ZM7.63993 6.37127L8.01493 7.87127L8.98507 7.62873L8.61007 6.12873L7.63993 6.37127ZM8.01493 7.87127L9.51493 13.8713L10.4851 13.6287L8.98507 7.62873L8.01493 7.87127ZM10 13.25H9.625V14.25H10V13.25ZM9.625 16.5H18.25V15.5H9.625V16.5ZM8 14.875C8 15.7725 8.72754 16.5 9.625 16.5V15.5C9.27982 15.5 9 15.2202 9 14.875H8ZM9.625 13.25C8.72754 13.25 8 13.9775 8 14.875H9C9 14.5298 9.27982 14.25 9.625 14.25V13.25ZM8.5 8.25H19.75V7.25H8.5V8.25ZM19.2649 7.62873L17.7649 13.6287L18.7351 13.8713L20.2351 7.87127L19.2649 7.62873ZM18.25 13.25H10V14.25H18.25V13.25ZM17.75 19C17.75 19.1381 17.6381 19.25 17.5 19.25V20.25C18.1904 20.25 18.75 19.6904 18.75 19H17.75ZM17.5 19.25C17.3619 19.25 17.25 19.1381 17.25 19H16.25C16.25 19.6904 16.8096 20.25 17.5 20.25V19.25ZM17.25 19C17.25 18.8619 17.3619 18.75 17.5 18.75V17.75C16.8096 17.75 16.25 18.3096 16.25 19H17.25ZM17.5 18.75C17.6381 18.75 17.75 18.8619 17.75 19H18.75C18.75 18.3096 18.1904 17.75 17.5 17.75V18.75ZM10.25 19C10.25 19.1381 10.1381 19.25 10 19.25V20.25C10.6904 20.25 11.25 19.6904 11.25 19H10.25ZM10 19.25C9.86193 19.25 9.75 19.1381 9.75 19H8.75C8.75 19.6904 9.30964 20.25 10 20.25V19.25ZM9.75 19C9.75 18.8619 9.86193 18.75 10 18.75V17.75C9.30964 17.75 8.75 18.3096 8.75 19H9.75ZM10 18.75C10.1381 18.75 10.25 18.8619 10.25 19H11.25C11.25 18.3096 10.6904 17.75 10 17.75V18.75Z" fill="black"/>
<rect x="0.5" y="0.5" width="25" height="25" rx="12.5" stroke="black"/>
</svg>
